<svg width="10" height="15" viewBox="0 0 10 15" fill="none" xmlns="http://www.w3.org/2000/svg">
<path d="M2.64206 7.5154L9.05582 13.6643C9.20102 13.8036 9.2826 13.9924 9.2826 14.1893C9.2826 14.3862 9.20102 14.5751 9.05582 14.7143C8.91061 14.8536 8.71367 14.9318 8.50832 14.9318C8.30297 14.9318 8.10603 14.8536 7.96082 14.7143L1.00111 8.04042C0.929097 7.97154 0.871961 7.8897 0.832977 7.79961C0.793993 7.70952 0.773926 7.61294 0.773926 7.5154C0.773926 7.41786 0.793993 7.32128 0.832977 7.23119C0.871961 7.1411 0.929097 7.05927 1.00111 6.99039L7.96082 0.316467C8.10603 0.177225 8.30297 0.098999 8.50832 0.098999C8.71367 0.098999 8.91061 0.177225 9.05582 0.316467C9.20102 0.45571 9.2826 0.644564 9.2826 0.841483C9.2826 1.0384 9.20102 1.22726 9.05582 1.3665L2.64206 7.5154Z" fill="#575757"/>
</svg>
