<svg width="9" height="15" viewBox="0 0 9 15" fill="none" xmlns="http://www.w3.org/2000/svg">
<path d="M7.06973 7.5137L0.655556 13.6626C0.510341 13.8018 0.428761 13.9907 0.428761 14.1876C0.428761 14.3845 0.510341 14.5734 0.655556 14.7126C0.800771 14.8519 0.997724 14.9301 1.20309 14.9301C1.40845 14.9301 1.60541 14.8519 1.75062 14.7126L8.71079 8.03871C8.78281 7.96983 8.83995 7.888 8.87893 7.7979C8.91792 7.70781 8.93799 7.61123 8.93799 7.5137C8.93799 7.41616 8.91792 7.31958 8.87893 7.22949C8.83995 7.13939 8.78281 7.05756 8.71079 6.98868L1.75062 0.314758C1.60541 0.175516 1.40845 0.09729 1.20309 0.09729C0.997724 0.09729 0.800771 0.175516 0.655556 0.314758C0.510341 0.454001 0.428761 0.642855 0.428761 0.839774C0.428761 1.03669 0.510341 1.22555 0.655556 1.36479L7.06973 7.5137Z" fill="#575757"/>
</svg>
