<svg width="28" height="28" viewBox="0 0 28 28" fill="none" xmlns="http://www.w3.org/2000/svg">
<path d="M7.36842 13.2632H20.6316V14.7368H7.36842V13.2632ZM14 0C17.713 0 21.274 1.475 23.8995 4.1005C26.525 6.72601 28 10.287 28 14C28 17.713 26.525 21.274 23.8995 23.8995C21.274 26.525 17.713 28 14 28C10.287 28 6.72601 26.525 4.1005 23.8995C1.475 21.274 0 17.713 0 14C0 10.287 1.475 6.72601 4.1005 4.1005C6.72601 1.475 10.287 0 14 0ZM14 1.47368C10.6778 1.47368 7.4917 2.79342 5.14256 5.14256C2.79342 7.4917 1.47368 10.6778 1.47368 14C1.47368 17.3222 2.79342 20.5083 5.14256 22.8574C7.4917 25.2066 10.6778 26.5263 14 26.5263C15.645 26.5263 17.2739 26.2023 18.7936 25.5728C20.3134 24.9433 21.6943 24.0206 22.8574 22.8574C24.0206 21.6943 24.9433 20.3134 25.5728 18.7936C26.2023 17.2739 26.5263 15.645 26.5263 14C26.5263 10.6778 25.2066 7.4917 22.8574 5.14256C20.5083 2.79342 17.3222 1.47368 14 1.47368Z" fill="#575757"/>
</svg>
