<svg width="28" height="28" viewBox="0 0 28 28" fill="none" xmlns="http://www.w3.org/2000/svg">
<path d="M7.29167 13.125H13.125V7.29167H14.5833V13.125H20.4167V14.5833H14.5833V20.4167H13.125V14.5833H7.29167V13.125ZM13.8542 0C17.5285 0 21.0524 1.45963 23.6505 4.05779C26.2487 6.65595 27.7083 10.1798 27.7083 13.8542C27.7083 17.5285 26.2487 21.0524 23.6505 23.6505C21.0524 26.2487 17.5285 27.7083 13.8542 27.7083C10.1798 27.7083 6.65595 26.2487 4.05779 23.6505C1.45963 21.0524 0 17.5285 0 13.8542C0 10.1798 1.45963 6.65595 4.05779 4.05779C6.65595 1.45963 10.1798 0 13.8542 0ZM13.8542 1.45833C10.5666 1.45833 7.41366 2.76432 5.08899 5.08899C2.76432 7.41366 1.45833 10.5666 1.45833 13.8542C1.45833 17.1417 2.76432 20.2947 5.08899 22.6193C7.41366 24.944 10.5666 26.25 13.8542 26.25C15.482 26.25 17.0939 25.9294 18.5978 25.3064C20.1018 24.6835 21.4683 23.7704 22.6193 22.6193C23.7704 21.4683 24.6835 20.1018 25.3064 18.5978C25.9294 17.0939 26.25 15.482 26.25 13.8542C26.25 10.5666 24.944 7.41366 22.6193 5.08899C20.2947 2.76432 17.1417 1.45833 13.8542 1.45833Z" fill="#575757"/>
</svg>
