<svg width="19" height="20" viewBox="0 0 19 20" fill="none" xmlns="http://www.w3.org/2000/svg">
<path d="M15.8332 19.3333V18.1666H14.6665V19.3333H15.8332ZM7.6665 5.3333C5.80999 5.3333 4.02951 6.0708 2.71676 7.38356C1.404 8.69631 0.666504 10.4768 0.666504 12.3333C0.666504 14.1898 1.404 15.9703 2.71676 17.2831C4.02951 18.5958 5.80999 19.3333 7.6665 19.3333H12.3332V18.1666H7.6665C6.11941 18.1666 4.63568 17.5521 3.54171 16.4581C2.44775 15.3641 1.83317 13.8804 1.83317 12.3333C1.83317 10.7862 2.44775 9.30248 3.54171 8.20851C4.63568 7.11455 6.11941 6.49997 7.6665 6.49997H15.9382L12.3915 10.0466L13.2198 10.8633L18.1665 5.91664L13.2198 0.969971L12.3915 1.78664L15.9382 5.3333H7.6665Z" fill="black"/>
</svg>
