<svg width="21" height="21" viewBox="0 0 21 21" fill="none" xmlns="http://www.w3.org/2000/svg">
<path d="M8.08333 0.666626C10.0946 0.666626 12.0234 1.46558 13.4456 2.88773C14.8677 4.30988 15.6667 6.23873 15.6667 8.24996C15.6667 10.14 14.9783 11.8666 13.835 13.185L20.4267 19.7766L19.5983 20.605L13.0067 14.0133C11.6361 15.1894 9.88933 15.8351 8.08333 15.8333C6.07211 15.8333 4.14326 15.0343 2.72111 13.6122C1.29896 12.19 0.5 10.2612 0.5 8.24996C0.5 6.23873 1.29896 4.30988 2.72111 2.88773C4.14326 1.46558 6.07211 0.666626 8.08333 0.666626ZM8.08333 1.83329C6.38153 1.83329 4.74942 2.50933 3.54606 3.71269C2.34271 4.91605 1.66667 6.54815 1.66667 8.24996C1.66667 9.95177 2.34271 11.5839 3.54606 12.7872C4.74942 13.9906 6.38153 14.6666 8.08333 14.6666C8.92598 14.6666 9.76038 14.5007 10.5389 14.1782C11.3174 13.8557 12.0248 13.3831 12.6206 12.7872C13.2164 12.1914 13.6891 11.484 14.0116 10.7055C14.334 9.92701 14.5 9.09261 14.5 8.24996C14.5 7.40731 14.334 6.57291 14.0116 5.79441C13.6891 5.0159 13.2164 4.30853 12.6206 3.71269C12.0248 3.11685 11.3174 2.6442 10.5389 2.32173C9.76038 1.99926 8.92598 1.83329 8.08333 1.83329Z" fill="black"/>
</svg>
