<svg width="19" height="20" viewBox="0 0 19 20" fill="none" xmlns="http://www.w3.org/2000/svg">
<path d="M2.99984 19.3333V18.1666H4.1665V19.3333H2.99984ZM11.1665 5.3333C13.023 5.3333 14.8035 6.0708 16.1163 7.38356C17.429 8.69631 18.1665 10.4768 18.1665 12.3333C18.1665 14.1898 17.429 15.9703 16.1163 17.2831C14.8035 18.5958 13.023 19.3333 11.1665 19.3333H6.49984V18.1666H11.1665C12.7136 18.1666 14.1973 17.5521 15.2913 16.4581C16.3853 15.3641 16.9998 13.8804 16.9998 12.3333C16.9998 10.7862 16.3853 9.30248 15.2913 8.20851C14.1973 7.11455 12.7136 6.49997 11.1665 6.49997H2.89484L6.4415 10.0466L5.61317 10.8633L0.666504 5.91664L5.61317 0.969971L6.4415 1.78664L2.89484 5.3333H11.1665Z" fill="black"/>
</svg>
